<svg width="96" height="96" viewBox="0 0 96 96" fill="none" xmlns="http://www.w3.org/2000/svg">
<circle cx="48" cy="48" r="48" fill="url(#paint0_linear_52_831)"/>
<g clip-path="url(#clip0_52_831)">
<path d="M52.5 24H29.5C26.46 24 24 26.46 24 29.5V60.5C24 63.54 26.46 66 29.5 66H45.78C43.9669 63.5375 42.9924 60.5579 43 57.5C43 49.5 49.5 43 57.5 43C57.66 43 57.84 43 58 43.02V29.5C58 26.46 55.54 24 52.5 24ZM32 32H40C41.1 32 42 32.9 42 34C42 35.1 41.1 36 40 36H32C30.9 36 30 35.1 30 34C30 32.9 30.9 32 32 32ZM42 52H32C30.9 52 30 51.1 30 50C30 48.9 30.9 48 32 48H42C43.1 48 44 48.9 44 50C44 51.1 43.1 52 42 52ZM50 44H32C30.9 44 30 43.1 30 42C30 40.9 30.9 40 32 40H50C51.1 40 52 40.9 52 42C52 43.1 51.1 44 50 44Z" fill="white"/>
<path d="M57.5 68C51.71 68 47 63.29 47 57.5C47 51.71 51.71 47 57.5 47C63.29 47 68 51.71 68 57.5C68 63.29 63.29 68 57.5 68ZM57.5 51C53.916 51 51 53.916 51 57.5C51 61.084 53.916 64 57.5 64C61.084 64 64 61.084 64 57.5C64 53.916 61.084 51 57.5 51Z" fill="white"/>
<path d="M69.9999 72C69.7373 72.0003 69.4771 71.9486 69.2345 71.8481C68.9918 71.7475 68.7714 71.6 68.5859 71.414L62.0859 64.914C61.9003 64.7283 61.753 64.5079 61.6525 64.2652C61.552 64.0226 61.5002 63.7626 61.5002 63.5C61.5002 63.2374 61.552 62.9774 61.6525 62.7347C61.753 62.4921 61.9003 62.2717 62.0859 62.086C62.2716 61.9003 62.4921 61.753 62.7347 61.6525C62.9773 61.552 63.2373 61.5003 63.4999 61.5003C63.7625 61.5003 64.0226 61.552 64.2652 61.6525C64.5078 61.753 64.7283 61.9003 64.9139 62.086L71.4139 68.586C71.6945 68.8653 71.8858 69.2217 71.9635 69.6099C72.0412 69.9982 72.0018 70.4007 71.8503 70.7665C71.6988 71.1323 71.442 71.4449 71.1126 71.6645C70.7831 71.8841 70.3959 72.0009 69.9999 72Z" fill="white"/>
</g>
<defs>
<linearGradient id="paint0_linear_52_831" x1="48" y1="0" x2="48" y2="96" gradientUnits="userSpaceOnUse">
<stop stop-color="#2E6DA4"/>
<stop offset="1" stop-color="#11293E"/>
</linearGradient>
<clipPath id="clip0_52_831">
<rect width="48" height="48" fill="white" transform="translate(24 24)"/>
</clipPath>
</defs>
</svg>
