<svg width="96" height="96" viewBox="0 0 96 96" fill="none" xmlns="http://www.w3.org/2000/svg">
<circle cx="48" cy="48" r="48" fill="url(#paint0_linear_52_840)"/>
<path d="M66.5 30H29.5C28.0416 30.0011 26.6433 30.5809 25.6121 31.6121C24.5809 32.6433 24.0011 34.0416 24 35.5V60.5C24.0011 61.9584 24.5809 63.3567 25.6121 64.3879C26.6433 65.4191 28.0416 65.9989 29.5 66H66.5C67.9584 65.9989 69.3567 65.4191 70.3879 64.3879C71.4191 63.3567 71.9989 61.9584 72 60.5V35.5C71.9989 34.0416 71.4191 32.6433 70.3879 31.6121C69.3567 30.5809 67.9584 30.0011 66.5 30ZM39 38C41.756 38 44 40.244 44 43C44 45.756 41.756 48 39 48C36.244 48 34 45.756 34 43C34 40.244 36.244 38 39 38ZM48 56.5C48 56.8978 47.842 57.2794 47.5607 57.5607C47.2794 57.842 46.8978 58 46.5 58H31.5C31.1022 58 30.7206 57.842 30.4393 57.5607C30.158 57.2794 30 56.8978 30 56.5V55.5C30.0011 54.0416 30.5809 52.6433 31.6121 51.6121C32.6433 50.5809 34.0416 50.0011 35.5 50H42.5C43.9584 50.0011 45.3567 50.5809 46.3879 51.6121C47.4191 52.6433 47.9989 54.0416 48 55.5V56.5ZM64.5 58H53.5C53.1022 58 52.7206 57.842 52.4393 57.5607C52.158 57.2794 52 56.8978 52 56.5C52 56.1022 52.158 55.7206 52.4393 55.4393C52.7206 55.158 53.1022 55 53.5 55H64.5C64.8978 55 65.2794 55.158 65.5607 55.4393C65.842 55.7206 66 56.1022 66 56.5C66 56.8978 65.842 57.2794 65.5607 57.5607C65.2794 57.842 64.8978 58 64.5 58ZM64.5 50H53.5C53.1022 50 52.7206 49.842 52.4393 49.5607C52.158 49.2794 52 48.8978 52 48.5C52 48.1022 52.158 47.7206 52.4393 47.4393C52.7206 47.158 53.1022 47 53.5 47H64.5C64.8978 47 65.2794 47.158 65.5607 47.4393C65.842 47.7206 66 48.1022 66 48.5C66 48.8978 65.842 49.2794 65.5607 49.5607C65.2794 49.842 64.8978 50 64.5 50ZM64.5 42H53.5C53.1022 42 52.7206 41.842 52.4393 41.5607C52.158 41.2794 52 40.8978 52 40.5C52 40.1022 52.158 39.7206 52.4393 39.4393C52.7206 39.158 53.1022 39 53.5 39H64.5C64.8978 39 65.2794 39.158 65.5607 39.4393C65.842 39.7206 66 40.1022 66 40.5C66 40.8978 65.842 41.2794 65.5607 41.5607C65.2794 41.842 64.8978 42 64.5 42Z" fill="white"/>
<defs>
<linearGradient id="paint0_linear_52_840" x1="48" y1="0" x2="48" y2="96" gradientUnits="userSpaceOnUse">
<stop stop-color="#2E6DA4"/>
<stop offset="1" stop-color="#11293E"/>
</linearGradient>
</defs>
</svg>
