<svg width="96" height="96" viewBox="0 0 96 96" fill="none" xmlns="http://www.w3.org/2000/svg">
<circle cx="48" cy="48" r="48" fill="url(#paint0_linear_52_865)"/>
<g clip-path="url(#clip0_52_865)">
<path fill-rule="evenodd" clip-rule="evenodd" d="M61.8307 52.576H51.3171C52.1847 49.9728 52.6457 47.7817 52.7218 45.9134C52.9011 41.5059 50.82 39.7615 49.0427 39.0733C48.9684 39.0441 48.891 39.0233 48.8121 39.0114C47.435 38.7938 46.9447 39.4417 46.6198 40.1739L46.5772 40.2699C46.5296 40.3751 46.4985 40.487 46.485 40.6016C46.0456 44.3615 44.44 47.8894 41.8937 50.6905V71.6952C42.1778 71.7992 42.4679 71.8858 42.7625 71.9544C42.8423 71.9732 42.9238 71.9833 43.0058 71.9845C43.8859 71.9939 44.935 71.9987 46.1449 71.9987C47.3518 71.9987 48.7184 71.9938 50.235 71.9845H60.1395C60.7187 71.9846 61.2874 71.8309 61.7876 71.539C62.2878 71.2472 62.7015 70.8277 62.9864 70.3235C63.2712 69.8192 63.417 69.2484 63.4089 68.6693C63.4007 68.0903 63.2388 67.5238 62.9398 67.0278C63.6009 66.527 64.0466 65.7935 64.1865 64.976C64.3264 64.1586 64.15 63.3186 63.693 62.6265C64.3345 62.0825 64.7414 61.312 64.8289 60.4754C64.9164 59.6389 64.6777 58.8008 64.1626 58.1359C64.6143 57.6766 64.9202 57.094 65.0418 56.4614C65.1634 55.8288 65.0954 55.1744 64.8462 54.5804C64.597 53.9863 64.1779 53.4792 63.6413 53.1226C63.1048 52.7661 62.4749 52.5761 61.8307 52.5765V52.576ZM39.6957 33.7193C39.6291 33.5142 39.505 33.3325 39.3381 33.1958C39.1713 33.0591 38.9687 32.9733 38.7544 32.9484L35.6832 32.5951L34.3988 29.7852C34.3095 29.5887 34.1656 29.422 33.9841 29.3051C33.8026 29.1882 33.5914 29.1261 33.3755 29.1261C33.1597 29.1261 32.9484 29.1882 32.7669 29.3051C32.5854 29.422 32.4415 29.5887 32.3522 29.7852L31.0678 32.5951L27.9967 32.9484C27.7824 32.973 27.5798 33.0587 27.4128 33.1952C27.2459 33.3318 27.1217 33.5134 27.055 33.7185C26.9884 33.9236 26.9821 34.1436 27.037 34.3521C27.0918 34.5607 27.2054 34.7491 27.3643 34.895L29.6408 36.9856L29.0279 40.0153C28.9856 40.2266 29.0048 40.4455 29.0831 40.6462C29.1615 40.8469 29.2958 41.0209 29.4701 41.1475C29.6443 41.2742 29.8513 41.3482 30.0664 41.3608C30.2814 41.3734 30.4956 41.324 30.6835 41.2185L33.3752 39.6987L36.0675 41.2185C36.2553 41.3245 36.4696 41.3743 36.6849 41.3619C36.9002 41.3496 37.1074 41.2756 37.2818 41.1488C37.4563 41.0221 37.5906 40.8478 37.6688 40.6469C37.747 40.4459 37.7659 40.2267 37.7231 40.0154L37.1102 36.9857L39.3867 34.8951C39.5454 34.7493 39.6589 34.561 39.7137 34.3526C39.7684 34.1442 39.7622 33.9244 39.6956 33.7194L39.6957 33.7193ZM69.0051 33.7193C69.0717 33.9243 69.078 34.144 69.0233 34.3525C68.9686 34.5609 68.8551 34.7492 68.6964 34.895L66.4198 36.9856L67.0326 40.0153C67.0754 40.2266 67.0566 40.4458 66.9783 40.6467C66.9001 40.8477 66.7658 41.0219 66.5914 41.1486C66.4169 41.2754 66.2098 41.3494 65.9945 41.3617C65.7792 41.3741 65.5649 41.3244 65.3772 41.2184L62.6854 39.6986L59.9935 41.2184C59.8057 41.3244 59.5914 41.3742 59.3761 41.3618C59.1608 41.3495 58.9536 41.2755 58.7792 41.1487C58.6047 41.022 58.4704 40.8477 58.3922 40.6468C58.314 40.4458 58.2951 40.2267 58.3379 40.0153L58.9508 36.9856L56.6743 34.895C56.5154 34.7491 56.4018 34.5607 56.347 34.3521C56.2921 34.1436 56.2984 33.9236 56.365 33.7185C56.4317 33.5134 56.5559 33.3318 56.7228 33.1952C56.8898 33.0587 57.0924 32.973 57.3067 32.9484L60.3769 32.5951L61.6618 29.7852C61.7511 29.5887 61.895 29.422 62.0765 29.3052C62.2579 29.1883 62.4692 29.1261 62.685 29.1261C62.9008 29.1261 63.1121 29.1883 63.2935 29.3052C63.4749 29.422 63.6189 29.5887 63.7081 29.7852L64.9931 32.5951L68.0635 32.9484C68.2777 32.9732 68.4804 33.0591 68.6472 33.1958C68.8141 33.3324 68.9382 33.5142 69.0047 33.7193H69.0051ZM55.6029 29.5024C55.5362 29.297 55.4121 29.1149 55.2453 28.9778C55.0784 28.8406 54.8759 28.7541 54.6614 28.7284L50.7076 28.2772L49.0533 24.6546C48.9631 24.4591 48.8188 24.2936 48.6374 24.1776C48.4561 24.0616 48.2453 24 48.0301 24C47.8148 24 47.6041 24.0616 47.4227 24.1776C47.2414 24.2936 47.0971 24.4591 47.0068 24.6546L45.3523 28.277L41.3987 28.7281C41.1846 28.7532 40.9822 28.8392 40.8155 28.9759C40.6488 29.1126 40.5248 29.2943 40.4582 29.4993C40.3917 29.7044 40.3853 29.9242 40.4399 30.1328C40.4946 30.3413 40.6078 30.5298 40.7664 30.6759L43.6976 33.3686L42.9084 37.2686C42.8657 37.4799 42.8846 37.699 42.9629 37.8999C43.0412 38.1007 43.1755 38.2749 43.35 38.4016C43.5244 38.5282 43.7315 38.6022 43.9467 38.6145C44.1619 38.6268 44.3762 38.5771 44.5639 38.4712L48.03 36.516L51.4962 38.4713C51.6839 38.5772 51.8981 38.627 52.1133 38.6146C52.3285 38.6023 52.5356 38.5283 52.71 38.4017C52.8844 38.275 53.0188 38.1009 53.097 37.9C53.1753 37.6992 53.1943 37.4801 53.1516 37.2688L52.3626 33.3688L55.2938 30.6759C55.4524 30.5305 55.566 30.3425 55.6208 30.1344C55.6757 29.9263 55.6695 29.7068 55.6032 29.5021L55.6029 29.5024ZM39.6437 52.7796C39.4456 52.4646 39.1709 52.205 38.8452 52.025C38.5195 51.845 38.1535 51.7505 37.7814 51.7503H30.0163C29.4325 51.7508 28.8728 51.9829 28.46 52.3956C28.0472 52.8083 27.8149 53.3679 27.8143 53.9516V69.7961C27.8147 70.3801 28.0469 70.94 28.4597 71.353C28.8725 71.766 29.4323 71.9985 30.0163 71.9992H37.7814C38.1534 71.999 38.5193 71.9046 38.845 71.7248C39.1706 71.5449 39.4454 71.2855 39.6437 70.9707V52.7796ZM30.6597 55.8827C30.6597 55.5843 30.7782 55.2982 30.9892 55.0872C31.2001 54.8762 31.4863 54.7577 31.7847 54.7577H32.6103C32.9087 54.7577 33.1948 54.8762 33.4058 55.0872C33.6168 55.2982 33.7353 55.5843 33.7353 55.8827C33.7353 56.181 33.6168 56.4672 33.4058 56.6782C33.1948 56.8892 32.9087 57.0077 32.6103 57.0077H31.7848C31.637 57.0077 31.4907 56.9786 31.3542 56.9221C31.2177 56.8655 31.0937 56.7827 30.9892 56.6782C30.8847 56.5737 30.8018 56.4497 30.7453 56.3132C30.6888 56.1767 30.6597 56.0304 30.6597 55.8827Z" fill="white"/>
</g>
<defs>
<linearGradient id="paint0_linear_52_865" x1="48" y1="0" x2="48" y2="96" gradientUnits="userSpaceOnUse">
<stop stop-color="#2E6DA4"/>
<stop offset="1" stop-color="#11293E"/>
</linearGradient>
<clipPath id="clip0_52_865">
<rect width="48" height="48" fill="white" transform="translate(24 24)"/>
</clipPath>
</defs>
</svg>
