<svg width="96" height="96" viewBox="0 0 96 96" fill="none" xmlns="http://www.w3.org/2000/svg">
<circle cx="48" cy="48" r="48" fill="url(#paint0_linear_52_856)"/>
<path fill-rule="evenodd" clip-rule="evenodd" d="M50.536 52.6C50.9075 52.742 51.2075 53.0257 51.3698 53.3887C51.5322 53.7517 51.5438 54.1644 51.402 54.536C50.124 57.88 48.18 59.724 45.82 60.648C43.636 61.5 41.216 61.5 39.13 61.5H39C36.76 61.5 34.88 61.52 33.272 62.148C31.794 62.724 30.416 63.88 29.402 66.536C29.2599 66.9076 28.9759 67.2074 28.6127 67.3697C28.2494 67.5319 27.8366 67.5432 27.465 67.401C27.0934 67.2588 26.7936 66.9749 26.6313 66.6116C26.4691 66.2484 26.4579 65.8356 26.6 65.464C27.876 62.12 29.82 60.276 32.18 59.352C34.366 58.5 36.786 58.5 38.87 58.5H39C41.24 58.5 43.12 58.48 44.728 57.852C46.208 57.276 47.586 56.12 48.6 53.464C48.742 53.0925 49.0257 52.7926 49.3887 52.6302C49.7518 52.4678 50.1644 52.4562 50.536 52.598V52.6ZM49.896 28.5H58.11C60.376 28.5 62.228 28.5 63.69 28.696C65.218 28.902 66.542 29.346 67.6 30.404C68.656 31.462 69.1 32.784 69.306 34.314C69.502 35.774 69.502 37.626 69.502 39.894V44.108C69.502 46.374 69.502 48.224 69.306 49.688C69.102 51.214 68.656 52.538 67.6 53.596C66.544 54.654 65.218 55.098 63.69 55.304C62.228 55.5 60.376 55.5 58.11 55.5H55C54.6022 55.5 54.2207 55.342 53.9394 55.0607C53.658 54.7794 53.5 54.3978 53.5 54C53.5 53.6022 53.658 53.2206 53.9394 52.9393C54.2207 52.658 54.6022 52.5 55 52.5H58.002C60.402 52.5 62.052 52.496 63.29 52.33C64.484 52.17 65.07 51.882 65.478 51.474C65.886 51.068 66.172 50.482 66.334 49.286C66.5 48.048 66.504 46.4 66.504 44V40C66.504 37.6 66.5 35.952 66.334 34.714C66.174 33.518 65.886 32.934 65.478 32.526C65.07 32.118 64.484 31.83 63.29 31.67C62.05 31.504 60.402 31.5 58.004 31.5H50.004C47.604 31.5 45.954 31.504 44.716 31.67C43.522 31.83 42.936 32.118 42.528 32.526C42.18 32.874 41.924 33.348 41.756 34.206C41.58 35.106 41.522 36.3 41.508 38.012C41.5064 38.209 41.4661 38.4037 41.3892 38.5851C41.3124 38.7665 41.2006 38.931 41.0602 39.0691C40.9198 39.2073 40.7535 39.3165 40.5709 39.3904C40.3884 39.4643 40.193 39.5016 39.996 39.5C39.799 39.4984 39.6043 39.4581 39.4229 39.3812C39.2415 39.3044 39.077 39.1926 38.9389 39.0522C38.8007 38.9118 38.6915 38.7455 38.6176 38.5629C38.5437 38.3803 38.5064 38.185 38.508 37.988C38.522 36.286 38.576 34.834 38.812 33.628C39.056 32.382 39.514 31.296 40.406 30.404C41.466 29.346 42.788 28.902 44.316 28.696C45.778 28.5 47.63 28.5 49.896 28.5Z" fill="white"/>
<path fill-rule="evenodd" clip-rule="evenodd" d="M39 45.5C38.0717 45.5 37.1815 45.8687 36.5251 46.5251C35.8687 47.1815 35.5 48.0717 35.5 49C35.5 49.9283 35.8687 50.8185 36.5251 51.4749C37.1815 52.1313 38.0717 52.5 39 52.5C39.9283 52.5 40.8185 52.1313 41.4749 51.4749C42.1313 50.8185 42.5 49.9283 42.5 49C42.5 48.0717 42.1313 47.1815 41.4749 46.5251C40.8185 45.8687 39.9283 45.5 39 45.5ZM32.5 49C32.5 47.2761 33.1848 45.6228 34.4038 44.4038C35.6228 43.1848 37.2761 42.5 39 42.5C40.7239 42.5 42.3772 43.1848 43.5962 44.4038C44.8152 45.6228 45.5 47.2761 45.5 49C45.5 50.7239 44.8152 52.3772 43.5962 53.5962C42.3772 54.8152 40.7239 55.5 39 55.5C37.2761 55.5 35.6228 54.8152 34.4038 53.5962C33.1848 52.3772 32.5 50.7239 32.5 49ZM46.5 38C46.5 37.6022 46.658 37.2206 46.9393 36.9393C47.2206 36.658 47.6022 36.5 48 36.5H60C60.3978 36.5 60.7794 36.658 61.0607 36.9393C61.342 37.2206 61.5 37.6022 61.5 38C61.5 38.3978 61.342 38.7794 61.0607 39.0607C60.7794 39.342 60.3978 39.5 60 39.5H48C47.6022 39.5 47.2206 39.342 46.9393 39.0607C46.658 38.7794 46.5 38.3978 46.5 38ZM52.5 46C52.5 45.6022 52.658 45.2206 52.9393 44.9393C53.2206 44.658 53.6022 44.5 54 44.5H60C60.3978 44.5 60.7794 44.658 61.0607 44.9393C61.342 45.2206 61.5 45.6022 61.5 46C61.5 46.3978 61.342 46.7794 61.0607 47.0607C60.7794 47.342 60.3978 47.5 60 47.5H54C53.6022 47.5 53.2206 47.342 52.9393 47.0607C52.658 46.7794 52.5 46.3978 52.5 46Z" fill="white"/>
<defs>
<linearGradient id="paint0_linear_52_856" x1="48" y1="0" x2="48" y2="96" gradientUnits="userSpaceOnUse">
<stop stop-color="#2E6DA4"/>
<stop offset="1" stop-color="#11293E"/>
</linearGradient>
</defs>
</svg>
